<mxfile host="app.diagrams.net" modified="2022-08-25T02:55:11.719Z" agent="5.0 (Macintosh; Intel Mac OS X 10_15_7) AppleWebKit/537.36 (KHTML, like Gecko) Chrome/104.0.0.0 Safari/537.36" etag="7eDhteFlwqua8-3SCyWV" version="20.2.6" type="github">
  <diagram id="MnBHKPIAxqHrBGED2Ijw" name="第 1 页">
    <mxGraphModel dx="1426" dy="623" grid="1" gridSize="10" guides="1" tooltips="1" connect="1" arrows="1" fold="1" page="1" pageScale="1" pageWidth="827" pageHeight="1169" math="0" shadow="0">
      <root>
        <mxCell id="0" />
        <mxCell id="1" parent="0" />
        <mxCell id="oDap5_MvKy7BRW0vNR29-1" value="&lt;span style=&quot;font-size: 24px;&quot;&gt;消息详情&lt;/span&gt;" style="rounded=0;whiteSpace=wrap;html=1;strokeColor=#97D077;" vertex="1" parent="1">
          <mxGeometry x="360" y="270" width="120" height="50" as="geometry" />
        </mxCell>
        <mxCell id="oDap5_MvKy7BRW0vNR29-2" value="&lt;span style=&quot;font-size: 24px;&quot;&gt;消息id&lt;/span&gt;" style="ellipse;whiteSpace=wrap;html=1;strokeColor=#97D077;" vertex="1" parent="1">
          <mxGeometry x="260" y="150" width="130" height="50" as="geometry" />
        </mxCell>
        <mxCell id="oDap5_MvKy7BRW0vNR29-3" value="&lt;span style=&quot;font-size: 24px;&quot;&gt;是否已读&lt;/span&gt;" style="ellipse;whiteSpace=wrap;html=1;strokeColor=#97D077;" vertex="1" parent="1">
          <mxGeometry x="160" y="320" width="130" height="50" as="geometry" />
        </mxCell>
        <mxCell id="oDap5_MvKy7BRW0vNR29-4" value="&lt;span style=&quot;font-size: 24px;&quot;&gt;用户id&lt;/span&gt;" style="ellipse;whiteSpace=wrap;html=1;strokeColor=#97D077;" vertex="1" parent="1">
          <mxGeometry x="414" y="400" width="130" height="50" as="geometry" />
        </mxCell>
        <mxCell id="oDap5_MvKy7BRW0vNR29-5" value="&lt;span style=&quot;font-size: 24px;&quot;&gt;通知类型&lt;/span&gt;" style="ellipse;whiteSpace=wrap;html=1;strokeColor=#97D077;" vertex="1" parent="1">
          <mxGeometry x="540" y="230" width="130" height="50" as="geometry" />
        </mxCell>
        <mxCell id="oDap5_MvKy7BRW0vNR29-6" value="" style="endArrow=classic;html=1;rounded=0;exitX=0.75;exitY=1;exitDx=0;exitDy=0;strokeColor=#3399FF;entryX=0.5;entryY=0;entryDx=0;entryDy=0;" edge="1" parent="1" source="oDap5_MvKy7BRW0vNR29-1" target="oDap5_MvKy7BRW0vNR29-4">
          <mxGeometry width="50" height="50" relative="1" as="geometry">
            <mxPoint x="470" y="320" as="sourcePoint" />
            <mxPoint x="515" y="410" as="targetPoint" />
          </mxGeometry>
        </mxCell>
        <mxCell id="oDap5_MvKy7BRW0vNR29-7" value="" style="endArrow=classic;html=1;rounded=0;exitX=1;exitY=0.25;exitDx=0;exitDy=0;strokeColor=#3399FF;" edge="1" parent="1" source="oDap5_MvKy7BRW0vNR29-1" target="oDap5_MvKy7BRW0vNR29-5">
          <mxGeometry width="50" height="50" relative="1" as="geometry">
            <mxPoint x="480" y="330" as="sourcePoint" />
            <mxPoint x="525" y="420" as="targetPoint" />
          </mxGeometry>
        </mxCell>
        <mxCell id="oDap5_MvKy7BRW0vNR29-8" value="" style="endArrow=classic;html=1;rounded=0;exitX=0.25;exitY=0;exitDx=0;exitDy=0;strokeColor=#3399FF;" edge="1" parent="1" source="oDap5_MvKy7BRW0vNR29-1" target="oDap5_MvKy7BRW0vNR29-2">
          <mxGeometry width="50" height="50" relative="1" as="geometry">
            <mxPoint x="490" y="340" as="sourcePoint" />
            <mxPoint x="535" y="430" as="targetPoint" />
          </mxGeometry>
        </mxCell>
        <mxCell id="oDap5_MvKy7BRW0vNR29-9" value="" style="endArrow=classic;html=1;rounded=0;exitX=0;exitY=1;exitDx=0;exitDy=0;strokeColor=#3399FF;" edge="1" parent="1" source="oDap5_MvKy7BRW0vNR29-1" target="oDap5_MvKy7BRW0vNR29-3">
          <mxGeometry width="50" height="50" relative="1" as="geometry">
            <mxPoint x="500" y="350" as="sourcePoint" />
            <mxPoint x="545" y="440" as="targetPoint" />
          </mxGeometry>
        </mxCell>
      </root>
    </mxGraphModel>
  </diagram>
</mxfile>
